<svg xmlns="http://www.w3.org/2000/svg" width="116" height="95" fill="none" xmlns:v="https://vecta.io/nano"><g clip-path="url(#A)"><g fill="#fff"><path d="M116 38.95l-25.28 1.285 1.905-34.972L0 12.82l8.103 72.177 10.543-.592L14.68 95 37.36 83.35l71.9-4.034L116 38.95z"/><path d="M53.698-.004L7.293 2.934l.67 10.973 46.405-2.937-.67-10.973z"/></g><g fill="#01062b"><path d="M13.83 11.9a3.73 3.73 0 0 1-1.451-.185 3.61 3.61 0 0 1-1.247-.707c-.367-.314-.667-.702-.898-1.164a3.92 3.92 0 0 1-.4-1.543v-.023c-.032-.55.032-1.067.204-1.553s.417-.9.744-1.28.72-.66 1.18-.887a4.03 4.03 0 0 1 1.496-.388 4.17 4.17 0 0 1 1.116.074c.346.074.653.185.94.337s.54.337.762.564a4.43 4.43 0 0 1 .594.744L14.942 7.2c-.154-.26-.34-.467-.553-.62s-.485-.217-.82-.2a1.27 1.27 0 0 0-.553.162 1.37 1.37 0 0 0-.404.374c-.1.157-.2.333-.245.536a1.93 1.93 0 0 0-.06.628v.023a2.01 2.01 0 0 0 .141.656 1.45 1.45 0 0 0 .313.499 1.29 1.29 0 0 0 .449.31c.172.07.358.102.558.088.345-.023.617-.125.816-.3s.363-.42.5-.707l2.072 1.026a4.68 4.68 0 0 1-.494.813 3.16 3.16 0 0 1-.694.679c-.268.2-.58.36-.93.5a4.15 4.15 0 0 1-1.206.24zm5.968-8.014l2.408-.152 3.514 7.26-2.635.166-.444-.97-2.54.162-.313 1.017-2.594.162 2.603-7.643zm2.13 4.584l-.776-1.756-.553 1.84 1.33-.083zm7.222 2.43c-.74.046-1.437-.014-2.1-.18a4.29 4.29 0 0 1-1.7-.832l1.202-1.66c.413.287.843.48 1.283.587a4.39 4.39 0 0 0 1.311.12c.222-.014.376-.05.472-.116s.136-.143.13-.24v-.023c-.005-.106-.082-.2-.227-.25s-.417-.12-.807-.17l-1.183-.222a4.02 4.02 0 0 1-1.002-.37c-.3-.157-.526-.365-.707-.62s-.286-.578-.308-.97V5.93a2.42 2.42 0 0 1 .14-.994 2.35 2.35 0 0 1 .544-.832c.245-.24.558-.44.934-.6s.812-.24 1.3-.273c.707-.046 1.33 0 1.868.14a4.42 4.42 0 0 1 1.474.67L30.694 5.8a3.67 3.67 0 0 0-1.129-.485c-.4-.092-.757-.13-1.093-.106-.18.01-.313.046-.395.1s-.122.14-.118.23v.023c.005.05.018.092.05.134s.082.08.16.1a1.76 1.76 0 0 0 .304.092c.127.028.286.05.485.074.467.055.898.13 1.283.226s.726.226 1.007.397a2.11 2.11 0 0 1 .676.633c.168.253.26.564.28.938v.023c.023.388-.032.74-.163 1.063s-.33.596-.594.827-.6.42-.98.56a5.35 5.35 0 0 1-1.329.25zm3.328-7.767l2.426-.152.45 7.398-2.426.152-.45-7.398zm3.272-.203l2.272-.143 2.78 3.1-.2-3.267L43 2.468l.45 7.398-2.158.14-2.907-3.244.2 3.415-2.408.152-.444-7.398zM48.1 9.732c-.562.037-1.088-.032-1.578-.2a3.88 3.88 0 0 1-1.306-.735c-.376-.323-.68-.712-.9-1.17s-.358-.952-.395-1.488v-.023a3.79 3.79 0 0 1 .213-1.525c.173-.48.43-.906.766-1.28s.74-.675 1.2-.906a4.1 4.1 0 0 1 1.546-.402c.562-.037 1.088.032 1.578.2a3.88 3.88 0 0 1 1.306.735c.376.323.68.712.9 1.17s.358.952.395 1.488v.023a3.79 3.79 0 0 1-.213 1.525c-.173.48-.43.906-.766 1.28s-.74.675-1.2.906a4.01 4.01 0 0 1-1.546.402zm-.113-2.186a1.41 1.41 0 0 0 .612-.176 1.51 1.51 0 0 0 .453-.393c.123-.157.213-.342.268-.54a1.82 1.82 0 0 0 .063-.628v-.023a1.96 1.96 0 0 0-.145-.624 1.73 1.73 0 0 0-.34-.513 1.51 1.51 0 0 0-.499-.342 1.46 1.46 0 0 0-.64-.097 1.38 1.38 0 0 0-.612.176 1.51 1.51 0 0 0-.453.393c-.123.157-.213.342-.267.54a1.82 1.82 0 0 0-.064.628v.023c.014.217.064.425.145.624a1.73 1.73 0 0 0 .34.513 1.51 1.51 0 0 0 .499.342c.2.08.404.1.64.097zm-37.185 42.5l11.1-.638c2.87-.166 5.4.032 7.618.6s4.063 1.437 5.568 2.62a11.95 11.95 0 0 1 3.483 4.395c.817 1.747 1.288 3.715 1.4 5.9l.005.083c.122 2.195-.132 4.228-.762 6.1s-1.646 3.512-3.052 4.917S33 76.585 30.836 77.44s-4.698 1.372-7.623 1.54l-10.77.62L10.8 50.057zm10.167 8.05l.685 12.324 1.614-.092c2.236-.13 3.986-.716 5.242-1.76s1.828-2.64 1.7-4.778l-.005-.083c-.118-2.14-.862-3.655-2.227-4.552s-3.165-1.28-5.405-1.15l-1.614.092zm28.67-10.892l9.6-.555 13.867 29.053-10.52.605-1.75-3.877-10.148.582-1.27 4.053-10.352.596L49.64 47.214zm8.412 18.36l-3.047-7.024-2.254 7.33 5.3-.305zm17.445-.412L63.503 46.715l10.85-.624 5.5 9.422 4.476-9.995 10.73-.62-9.885 19.58.6 10.596-9.7.56-.585-10.47zm21.3-20.38l2.04 17.412 6.86.152 3.016-18.115-11.917.55zm5.36 30.074c2.9 0 5.25-2.396 5.25-5.35s-2.35-5.35-5.25-5.35-5.25 2.396-5.25 5.35 2.35 5.35 5.25 5.35zM8.88 17.838l24.256-1.63.544 8.438-14.57.98.245 3.752 13.536-.9.5 7.676-13.536.9.626 9.658-9.686.656-1.914-29.53zm26.948-1.78l14.157-.952c2.594-.176 4.743-.014 6.453.476s3.106 1.225 4.194 2.195a9.01 9.01 0 0 1 2.186 2.902c.512 1.095.82 2.403.92 3.92l.005.083c.14 2.167-.254 4.03-1.174 5.587s-2.24 2.833-3.95 3.826l7.396 9.584-11.05.744-6.008-8.068-2.068.14.544 8.438-9.686.652L35.83 16.06zm14.778 13.115c1.16-.08 2.054-.393 2.685-.943s.916-1.275.857-2.177l-.005-.083c-.063-.957-.44-1.645-1.13-2.066s-1.605-.6-2.734-.513l-4.222.282.372 5.78 4.176-.282zm34.218 6.493l-4.027.282L79.8 20.426l3.977-.282-.48-7.075-17.35 1.225.48 7.075 3.7-.26L71.11 36.63l-3.637.26.48 7.075 17.35-1.225-.48-7.075z"/></g></g><defs><clipPath id="A"><path fill="#fff" d="M0 0h116v95H0z"/></clipPath></defs></svg>