<svg height="496pt" viewBox="0 0 496 495" width="496pt"
    xmlns="http://www.w3.org/2000/svg"
    xmlns:xlink="http://www.w3.org/1999/xlink">
    <linearGradient id="a" gradientUnits="userSpaceOnUse" x1="248" x2="248" y1="496.372" y2=".4968">
        <stop offset="0" stop-color="#9f2fff"/>
        <stop offset="1" stop-color="#0bb1d3"/>
    </linearGradient>
    <path d="m224 96.371094c-13.230469 0-24 10.769531-24 24 0 13.234375 10.769531 24 24 24s24-10.765625 24-24c0-13.230469-10.769531-24-24-24zm0 32c-4.414062 0-8-3.589844-8-8 0-4.40625 3.585938-8 8-8s8 3.59375 8 8c0 4.410156-3.585938 8-8 8zm-72 8c0 4.417968-3.585938 8-8 8s-8-3.582032-8-8c0-4.414063 3.585938-8 8-8s8 3.585937 8 8zm160 0c0 4.417968-3.585938 8-8 8s-8-3.582032-8-8c0-4.414063 3.585938-8 8-8s8 3.585937 8 8zm152-56c-17.648438 0-32 14.351562-32 32 0 14.863281 10.230469 27.289062 24 30.863281v145.136719h-24v-88c0-22.054688-17.945312-40-40-40h-45.761719l35.378907-141.472656-99.457032 81.34375-58.222656-99.742188-58.175781 99.742188-99.378907-81.359376 35.378907 141.488282h-45.761719c-22.054688 0-40 17.945312-40 40v233.472656c-9.289062 3.3125-16 12.113281-16 22.527344v40h448v-40c0-10.414063-6.710938-19.214844-16-22.527344v-49.472656h16c13.230469 0 24-10.765625 24-24v-217.136719c13.769531-3.574219 24-16 24-30.863281 0-17.648438-14.351562-32-32-32zm-370.382812-18.511719 76.511718 62.640625 53.808594-92.257812 53.839844 92.25 76.597656-62.65625-24.613281 98.535156h-211.523438zm-37.617188 114.511719h336c13.230469 0 24 10.769531 24 24v232h-84.6875l-16-16h-182.625l-16 16h-84.6875v-232c0-13.230469 10.769531-24 24-24zm376 304h-416v-24c0-4.40625 3.585938-8 8-8h99.3125l16-16h169.375l16 16h99.3125c4.414062 0 8 3.59375 8 8zm16-112h-16v-64h24v56c0 4.410156-3.585938 8-8 8zm16-240c-8.824219 0-16-7.175782-16-16 0-8.824219 7.175781-16 16-16s16 7.175781 16 16c0 8.824218-7.175781 16-16 16zm-304 272h224c8.824219 0 16-7.175782 16-16v-176c0-8.824219-7.175781-16-16-16h-336v208zm-96-16v-144h96v144zm112 0v-16h96v16zm112 0v-144h96l.007812 144zm96-176v16h-96v-16zm-112 0v144h-96v-144zm-112 0v16h-96v-16zm-80 64h64v18.074218l-41.007812 73.816407-13.984376-7.777344 37.839844-68.113281h-46.847656zm288 0v18.074218l-41.007812 73.816407-13.984376-7.777344 37.839844-68.113281h-46.847656v-16zm-129.152344-16h-46.847656v-16h64v18.074218l-41.007812 73.816407-13.984376-7.777344zm-22.847656 192h16v16h-16zm-56 0h16v16h-16zm112 0h16v16h-16zm0 0" fill="url(#a)"/>
</svg>