<svg height="496pt" viewBox="0 0 496 496" width="496pt" xmlns="http://www.w3.org/2000/svg"><path d="m279.96875 88-56.03125-88-55.992188 88-87.945312-64 32 144h224l32-144zm0 0" fill="#f0bc5e"/><path d="m224 144c-13.230469 0-24-10.769531-24-24s10.769531-24 24-24 24 10.769531 24 24-10.769531 24-24 24zm0-32c-4.414062 0-8 3.59375-8 8s3.585938 8 8 8 8-3.59375 8-8-3.585938-8-8-8zm0 0"/><path d="m152 136c0 4.417969-3.582031 8-8 8s-8-3.582031-8-8 3.582031-8 8-8 8 3.582031 8 8zm0 0"/><path d="m312 136c0 4.417969-3.582031 8-8 8s-8-3.582031-8-8 3.582031-8 8-8 8 3.582031 8 8zm0 0"/><path d="m384 192h-336v208h336c8.824219 0 16-7.175781 16-16v-176c0-8.824219-7.175781-16-16-16zm0 16v16h-96v-16zm-112 0v144h-96v-144zm-112 0v16h-96v-16zm-96 176v-144h96v144zm112 0v-16h96v16zm112 0v-144h96l.007812 144zm0 0"/><path d="m80 288h46.847656l-37.839844 68.113281 13.984376 7.773438 41.007812-73.816407v-18.070312h-64zm0 0"/><path d="m304 272v16h46.847656l-37.839844 68.113281 13.984376 7.773438 41.007812-73.816407v-18.070312zm0 0"/><path d="m201.007812 324.113281 13.984376 7.773438 41.007812-73.816407v-18.070312h-64v16h46.847656zm0 0"/><path d="m464 80c-17.648438 0-32 14.351562-32 32 0 14.863281 10.230469 27.289062 24 30.863281v145.136719h-24v-88c0-22.054688-17.945312-40-40-40h-336c-22.054688 0-40 17.945312-40 40v240h16v-240c0-13.230469 10.769531-24 24-24h336c13.230469 0 24 10.769531 24 24v240h16v-56h16c13.230469 0 24-10.769531 24-24v-217.136719c13.769531-3.574219 24-16 24-30.863281 0-17.648438-14.351562-32-32-32zm-8 280c0 4.40625-3.585938 8-8 8h-16v-64h24zm8-232c-8.824219 0-16-7.175781-16-16s7.175781-16 16-16 16 7.175781 16 16-7.175781 16-16 16zm0 0"/><path d="m448 496h-448v-40c0-13.230469 10.769531-24 24-24h92.6875l16-16h182.625l16 16h92.6875c13.230469 0 24 10.769531 24 24zm0 0" fill="#f0bc5e"/><path d="m216 448h16v16h-16zm0 0"/><path d="m160 448h16v16h-16zm0 0"/><path d="m272 448h16v16h-16zm0 0"/></svg>