<?xml version="1.0" standalone="no"?>
<!DOCTYPE svg PUBLIC "-//W3C//DTD SVG 20010904//EN"
 "http://www.w3.org/TR/2001/REC-SVG-20010904/DTD/svg10.dtd">
<svg version="1.0" xmlns="http://www.w3.org/2000/svg"
 width="700.000000pt" height="700.000000pt" viewBox="0 0 700.000000 700.000000"
 preserveAspectRatio="xMidYMid meet">
<metadata>
Created by potrace 1.14, written by Peter Selinger 2001-2017
</metadata>
<g transform="translate(0.000000,700.000000) scale(0.100000,-0.100000)"
fill="#000000" stroke="none">
<path d="M3085 6859 c-157 -272 -204 -353 -465 -799 -134 -228 -248 -424 -254
-435 -26 -46 -26 -46 -69 -12 -23 17 -44 35 -47 38 -3 3 -158 131 -345 283
-187 153 -358 293 -380 311 -22 18 -134 110 -250 205 -115 94 -230 188 -254
209 -55 45 -81 64 -81 57 0 -3 84 -339 186 -747 102 -409 187 -750 189 -758 2
-9 8 -31 14 -48 5 -18 8 -33 6 -33 -3 0 0 -11 5 -26 6 -14 12 -37 15 -52 3
-15 22 -93 43 -174 l38 -147 -381 -3 c-361 -4 -383 -5 -438 -26 -217 -81 -360
-255 -384 -468 -5 -38 -8 -810 -8 -1716 l0 -1647 -37 -17 c-54 -24 -128 -101
-157 -164 l-26 -55 -3 -318 -3 -317 3160 0 c2522 0 3161 3 3162 13 1 6 1 142
1 302 0 248 -3 297 -17 340 -32 91 -92 160 -176 200 l-34 16 1 332 c1 183 2
339 3 348 1 15 21 17 159 21 157 3 157 3 220 37 70 38 115 85 152 158 l25 48
3 1578 c2 1487 3 1578 20 1584 106 36 195 104 252 194 79 122 90 286 28 421
-139 299 -531 357 -748 111 -198 -225 -125 -571 150 -702 l75 -36 0 -1017 c0
-674 -3 -1019 -10 -1020 -5 0 -81 -2 -167 -3 -106 -1 -158 2 -159 9 0 6 -2
306 -3 666 -3 721 -3 709 -67 830 -57 108 -164 206 -274 253 -102 43 -144 47
-512 47 -194 0 -353 3 -353 8 0 12 30 135 40 167 13 38 450 1796 450 1808 0 7
-81 -53 -100 -74 -3 -3 -52 -43 -110 -90 -58 -46 -114 -92 -125 -101 -23 -20
-362 -297 -422 -346 -23 -18 -175 -143 -340 -277 -231 -190 -300 -242 -308
-231 -5 7 -190 322 -410 699 -220 378 -402 687 -405 687 -3 0 -36 -55 -75
-121z m455 -973 c206 -355 377 -645 380 -645 4 -1 122 94 305 244 341 281 767
626 770 623 2 -1 -74 -311 -168 -688 l-172 -685 -1494 0 -1494 0 -172 688
c-94 378 -168 686 -164 685 8 -3 215 -171 489 -396 69 -57 132 -108 140 -115
184 -149 226 -183 230 -188 3 -3 51 -43 108 -89 110 -89 107 -89 135 -30 7 14
43 77 81 140 38 63 78 131 89 150 11 19 114 197 229 395 116 198 236 404 267
457 31 54 58 98 61 98 3 0 174 -290 380 -644z m3105 -277 c182 -86 163 -355
-30 -415 -212 -67 -382 188 -237 357 67 78 175 101 267 58z m-990 -1129 c71
-28 149 -101 185 -175 l25 -50 3 -1682 2 -1683 -597 0 -598 0 -113 113 -112
112 -1290 1 -1289 0 -113 -113 -113 -113 -598 0 -597 0 2 1678 3 1677 27 57
c48 102 154 185 252 196 22 2 42 5 43 6 1 0 1085 1 2410 0 l2408 -1 60 -23z
m765 -1786 c13 -3 15 -56 15 -411 -1 -306 -4 -414 -13 -431 -27 -47 -56 -56
-193 -57 -71 -1 -129 1 -130 4 -3 22 -3 851 0 873 l3 26 152 0 c83 0 158 -2
166 -4z m-1953 -1916 l113 -113 718 0 c677 0 720 -1 746 -18 46 -31 52 -61 52
-254 l-1 -178 -2930 -1 c-1612 -1 -2932 3 -2935 7 -3 5 -5 89 -4 188 1 167 3
181 23 210 12 17 35 34 52 38 16 5 346 8 734 8 l705 0 112 113 113 112 1195 0
1195 0 112 -112z"/>
<path d="M3118 5628 c-136 -18 -247 -115 -282 -248 -56 -216 104 -422 329
-422 181 0 334 153 335 335 0 65 -35 163 -76 213 -72 89 -194 137 -306 122z
m87 -232 c90 -38 90 -164 -1 -202 -116 -49 -207 94 -117 184 12 12 52 29 76
31 4 1 23 -5 42 -13z"/>
<path d="M1983 5170 c-31 -13 -63 -68 -63 -108 0 -25 9 -43 34 -68 33 -33 47
-38 91 -35 50 4 96 51 100 101 3 34 -32 95 -62 109 -28 13 -69 13 -100 1z"/>
<path d="M4214 5146 c-37 -37 -45 -86 -22 -129 26 -49 85 -71 136 -51 49 20
65 41 70 95 4 45 2 51 -31 84 -29 29 -42 35 -77 35 -34 0 -48 -6 -76 -34z"/>
<path d="M679 4262 c-1 -22 -1 -2893 0 -2908 1 -8 662 -11 2379 -12 2008 0
2385 2 2427 14 57 16 106 57 137 117 l22 42 1 1284 c0 1073 -2 1290 -14 1327
-15 48 -64 104 -114 131 -30 17 -166 18 -2434 20 -2229 1 -2403 0 -2404 -15z
m1581 -322 c0 -98 -2 -110 -17 -111 -24 -1 -1292 -1 -1318 0 -20 1 -21 7 -21
111 l-1 110 679 0 678 0 0 -110z m1579 -905 l-1 -1015 -676 2 -677 3 0 1013
-1 1012 678 0 677 0 0 -1015z m1581 905 l0 -110 -27 -1 c-36 -1 -1316 -1
-1323 0 -3 1 -5 51 -5 111 l-1 110 678 0 678 0 0 -110z m-3162 -1355 l0 -1015
-677 0 -677 0 0 1015 -1 1015 678 0 677 0 0 -1015z m3162 0 l0 -1015 -678 0
-677 0 0 1015 0 1015 677 0 678 0 0 -1015z m-1603 -794 c22 -1 22 -4 22 -111
l0 -110 -677 0 -678 0 1 103 c1 56 2 107 3 112 1 7 226 9 654 9 359 -1 663 -2
675 -3z"/>
<path d="M2710 3487 l0 -113 318 1 c174 1 323 -1 330 -3 8 -3 9 -9 3 -16 -4
-6 -26 -42 -47 -81 -20 -38 -114 -207 -207 -375 -93 -168 -186 -334 -205 -370
-19 -36 -41 -74 -49 -85 -7 -11 -13 -23 -13 -26 0 -8 178 -109 191 -109 4 0
49 75 100 168 51 92 101 183 112 202 26 46 37 66 217 390 l152 274 0 126 1
125 -452 3 -451 2 0 -113z"/>
<path d="M1130 3037 l0 -114 321 1 c210 1 323 -3 325 -9 3 -6 -55 -116 -127
-245 -163 -294 -182 -327 -221 -397 -17 -32 -62 -114 -101 -182 -78 -141 -80
-129 20 -180 27 -14 60 -33 74 -43 21 -14 29 -15 37 -5 7 9 227 403 447 802
15 28 35 64 45 80 80 138 80 137 81 273 l2 127 -452 3 -451 2 0 -113z"/>
<path d="M4290 3037 l0 -114 323 2 c177 0 325 -1 329 -2 8 -4 8 -3 -235 -439
-107 -194 -212 -383 -233 -420 -20 -38 -41 -73 -45 -79 -18 -19 -16 -21 141
-107 l45 -25 289 520 289 520 1 128 1 129 -452 0 -453 0 0 -113z"/>
<path d="M2264 655 c-2 -5 -5 -56 -6 -113 l-3 -102 115 0 115 0 -2 107 c0 60
-2 110 -2 113 -2 11 -213 6 -217 -5z"/>
<path d="M3050 553 l0 -114 112 3 112 3 0 103 c1 57 -1 107 -4 111 -3 4 -53 7
-112 7 l-108 0 0 -113z"/>
<path d="M3839 643 c0 -13 0 -48 0 -78 0 -30 0 -71 0 -90 l1 -35 113 0 112 0
-1 108 c-1 59 -2 109 -3 112 0 3 -50 5 -111 5 -107 0 -110 0 -111 -22z"/>
</g>
</svg>
